<svg id="f92e8dcd-a788-49e2-98a9-f1b6e8e258c5" data-name="Layer 1" xmlns="http://www.w3.org/2000/svg" viewBox="0 0 819.74 1080">
  <defs>
    <style>
      .a5208da9-eddd-4187-8dc4-8f55725f220f {
        fill: #fff;
      }
    </style>
  </defs>
  <title>1</title>
  <g>
    <path class="a5208da9-eddd-4187-8dc4-8f55725f220f" d="M410.2,144C183.48,144,0,327.61,0,554.07,0,729.45,110.11,878.83,264.8,937.6L299.56,841a307.08,307.08,0,0,1-197-286.95C102.28,384.26,240,246.68,409.93,246.68S717.45,384.39,717.45,554.33c0,130.81-81.72,242.51-197,287.09L554.94,938c154.69-58.77,264.8-208.28,264.8-383.53C820.27,327.61,636.66,144,410.2,144Z"/>
    <path class="a5208da9-eddd-4187-8dc4-8f55725f220f" d="M334.05,744.44l34.76-96.71a102.46,102.46,0,1,1,82.52,0l34.75,96.71c105.21-41.92,156.55-161.19,114.36-266.65a205.16,205.16,0,0,0-381,152.29A207.27,207.27,0,0,0,334.05,744.44Z"/>
  </g>
</svg>
