<svg id="e646862d-e957-485a-accc-5987eec6fb76" data-name="Layer 1" xmlns="http://www.w3.org/2000/svg" viewBox="0 0 795.86 1080">
  <defs>
    <style>
      .e3c30f95-020f-445e-8652-70cb6d65900c {
        fill: #fff;
      }
    </style>
  </defs>
  <title>1</title>
  <path id="adbae3f3-2532-4d21-8a95-882bcf587192" data-name="Shape" class="e3c30f95-020f-445e-8652-70cb6d65900c" d="M94.28,436a30.33,30.33,0,0,0-10.2-26.12L10.61,320.47V307h231L420.38,698.4,576.69,307H795.86v13.47l-63.67,60.81c-5.3,4.08-7.75,11-7.34,17.55V846.55a17.79,17.79,0,0,0,7.34,17.55l62,60.82v13.46H481.6V924.92l64.48-62.45c6.13-6.12,6.13-7.75,6.13-17.55V483.31L373.44,937.16H349L142,483.31V787.78a41.71,41.71,0,0,0,11.43,34.69l83.26,102V938H0V924.51L83.67,822.88c9-9,12.65-22.45,11-34.69V436Z"/>
</svg>
