<svg id="a1f01b02-ea03-4c27-bacb-c2175ce72988" data-name="Layer 1" xmlns="http://www.w3.org/2000/svg" viewBox="0 0 815.33 1080">
  <defs>
    <style>
      .bba51bb3-b532-418c-ada3-43a0f5ccd6fe {
        fill: #fff;
        fill-rule: evenodd;
      }
    </style>
  </defs>
  <title>1</title>
  <path id="fe18c8ba-1b0e-4c3a-a91e-2dc76eaed0c6" data-name="Shape" class="bba51bb3-b532-418c-ada3-43a0f5ccd6fe" d="M13.69,391.73h169V937.12H13.69ZM99.86,123a98.65,98.65,0,1,1,0,197.29c-54.42,1.14-97.51-42-99.78-97.51S42,125.27,96.46,123ZM290.35,391.73H452.5v73.7h1.13c22.68-42,77.1-88.44,159.88-88.44,171.21,0,201.82,112.25,201.82,260.79V937.12H647.52V674.06c0-63.5-2.27-144-88.44-144-88.44,0-102.05,69.16-102.05,140.6V939.38H289.22l1.13-547.65Z"/>
</svg>
